<svg width="24" height="25" viewBox="0 0 24 25" fill="none" xmlns="http://www.w3.org/2000/svg">
<path d="M16.7008 5.14026C15.4008 3.84026 13.8008 3.14026 12.0008 3.14026C10.3008 3.14026 8.60078 3.84026 7.30078 5.14026C6.00078 6.44026 5.30078 8.04026 5.30078 9.84026C5.30078 12.1403 6.50077 14.2403 8.40077 15.4403C10.0008 16.4403 11.0008 18.0403 11.0008 19.7403V19.9403C11.0008 20.5403 11.4008 20.9403 12.0008 20.9403C12.6008 20.9403 13.0008 20.5403 13.0008 19.9403V19.7403C13.0008 18.0403 14.0008 16.4403 15.6008 15.4403C17.5008 14.2403 18.7008 12.1403 18.7008 9.84026C18.7008 8.14026 18.0008 6.44026 16.7008 5.14026ZM14.5008 13.8403C13.4008 14.5403 12.6008 15.3403 12.0008 16.3403C11.4008 15.3403 10.6008 14.4403 9.50078 13.8403C8.10078 12.9403 7.30078 11.5403 7.30078 9.94026C7.30078 8.74026 7.80078 7.54026 8.70078 6.64026C9.60078 5.74026 10.8008 5.24026 12.0008 5.24026C13.2008 5.24026 14.4008 5.74026 15.3008 6.64026C16.2008 7.54026 16.7008 8.74026 16.7008 9.94026C16.7008 11.4403 15.9008 12.9403 14.5008 13.8403Z" fill="#191919"/>
<path d="M12.0008 8.14026C11.1008 8.14026 10.3008 8.94026 10.3008 9.84026C10.3008 10.7403 11.1008 11.5403 12.0008 11.5403C12.9008 11.5403 13.7008 10.7403 13.7008 9.84026C13.7008 8.94026 12.9008 8.14026 12.0008 8.14026Z" fill="#191919"/>
</svg>
