<svg width="16" height="17" viewBox="0 0 16 17" fill="none" xmlns="http://www.w3.org/2000/svg">
<path d="M8 16.1403C3.55556 16.1403 0 12.5847 0 8.14026C0 3.69581 3.55556 0.140259 8 0.140259C12.4444 0.140259 16 3.69581 16 8.14026C16 12.5847 12.4444 16.1403 8 16.1403ZM8 1.91804C4.53333 1.91804 1.77778 4.67359 1.77778 8.14026C1.77778 11.6069 4.53333 14.3625 8 14.3625C11.4667 14.3625 14.2222 11.6069 14.2222 8.14026C14.2222 4.67359 11.4667 1.91804 8 1.91804Z" fill="#191919"/>
<path d="M7.99979 13.0289C7.46646 13.0289 7.1109 12.6734 7.1109 12.1401V7.34006C7.1109 6.80673 7.46646 6.45117 7.99979 6.45117C8.53312 6.45117 8.88868 6.80673 8.88868 7.34006V12.1401C8.88868 12.6734 8.53312 13.0289 7.99979 13.0289Z" fill="#191919"/>
<path d="M8 5.38468C7.46667 5.38468 7.11111 5.02912 7.11111 4.49579V4.14023C7.11111 3.6069 7.46667 3.25134 8 3.25134C8.53334 3.25134 8.88889 3.6069 8.88889 4.14023V4.49579C8.88889 5.02912 8.53334 5.38468 8 5.38468Z" fill="#191919"/>
</svg>
