<svg width="17" height="17" viewBox="0 0 17 17" fill="none" xmlns="http://www.w3.org/2000/svg">
<path d="M8.28507 9.32069C7.773 9.32069 7.27242 9.16884 6.84665 8.88435C6.42088 8.59986 6.08903 8.1955 5.89307 7.7224C5.69711 7.24931 5.64583 6.72873 5.74573 6.2265C5.84563 5.72426 6.09222 5.26293 6.45431 4.90084C6.8164 4.53875 7.27773 4.29217 7.77996 4.19227C8.2822 4.09237 8.80278 4.14364 9.27587 4.3396C9.74896 4.53556 10.1533 4.86741 10.4378 5.29318C10.7223 5.71896 10.8742 6.21953 10.8742 6.7316C10.8733 7.41802 10.6003 8.07608 10.1149 8.56145C9.62955 9.04682 8.97149 9.31986 8.28507 9.32069V9.32069ZM8.28507 5.17815C7.97783 5.17815 7.67748 5.26926 7.42202 5.43996C7.16655 5.61065 6.96745 5.85327 6.84987 6.13712C6.73229 6.42098 6.70153 6.73333 6.76147 7.03467C6.82141 7.33601 6.96936 7.6128 7.18661 7.83006C7.40387 8.04731 7.68067 8.19526 7.98201 8.2552C8.28335 8.31514 8.59569 8.28438 8.87955 8.1668C9.16341 8.04923 9.40602 7.85012 9.57672 7.59465C9.74741 7.33919 9.83852 7.03885 9.83852 6.7316C9.83811 6.31973 9.67431 5.92484 9.38307 5.6336C9.09183 5.34236 8.69694 5.17856 8.28507 5.17815V5.17815Z" fill="#191919"/>
<path d="M8.28507 15.5345L3.91677 10.3828C3.85607 10.3054 3.796 10.2276 3.73657 10.1492C2.99038 9.16629 2.58728 7.9657 2.58909 6.73163C2.58909 5.22096 3.1892 3.77216 4.2574 2.70396C5.32561 1.63576 6.7744 1.03564 8.28507 1.03564C9.79574 1.03564 11.2445 1.63576 12.3127 2.70396C13.3809 3.77216 13.9811 5.22096 13.9811 6.73163C13.9829 7.96514 13.5799 9.16519 12.8341 10.1477L12.8336 10.1492C12.8336 10.1492 12.6782 10.3532 12.6549 10.3807L8.28507 15.5345ZM4.563 9.52525C4.56404 9.52525 4.68417 9.68474 4.71162 9.71891L8.28507 13.9334L11.8632 9.71322C11.886 9.68474 12.0071 9.52422 12.0077 9.5237C12.6172 8.72062 12.9466 7.73983 12.9454 6.73163C12.9454 5.49563 12.4544 4.31025 11.5804 3.43626C10.7065 2.56228 9.52107 2.07128 8.28507 2.07128C7.04907 2.07128 5.86369 2.56228 4.98971 3.43626C4.11572 4.31025 3.62472 5.49563 3.62472 6.73163C3.62363 7.74046 3.95342 8.72181 4.56352 9.52525H4.563Z" fill="#191919"/>
</svg>
