<svg width="24" height="25" viewBox="0 0 24 25" fill="none" xmlns="http://www.w3.org/2000/svg">
<path d="M18.1 19.1403H5.4C4.1 19.1403 3 18.0403 3 16.7403V9.04026C3 7.74026 4.1 6.64026 5.4 6.64026C5.6 6.64026 5.7 6.54026 5.8 6.34026L6.2 5.24026C6.5 4.24026 7.5 3.64026 8.5 3.64026H15C16 3.64026 16.9 4.24026 17.3 5.24026L17.7 6.34026C17.8 6.54026 17.9 6.64026 18.1 6.64026C19.4 6.64026 20.5 7.74026 20.5 9.04026V16.7403C20.5 18.0403 19.4 19.1403 18.1 19.1403ZM8.5 5.64026C8.3 5.64026 8.2 5.74026 8.1 5.94026L7.7 7.04026C7.4 8.04026 6.4 8.64026 5.4 8.64026C5.2 8.64026 5 8.84026 5 9.04026V16.7403C5 16.9403 5.2 17.1403 5.4 17.1403H18.1C18.3 17.1403 18.5 16.9403 18.5 16.7403V9.04026C18.5 8.84026 18.3 8.64026 18.1 8.64026C17.1 8.64026 16.2 8.04026 15.8 7.04026L15.4 5.94026C15.3 5.74026 15.2 5.64026 15 5.64026H8.5V5.64026Z" fill="#191919"/>
<path d="M11.8 15.6403C9.89999 15.6403 8.29999 14.0403 8.29999 12.1403C8.29999 10.2403 9.89999 8.64026 11.8 8.64026C13.7 8.64026 15.3 10.2403 15.3 12.1403C15.3 14.0403 13.7 15.6403 11.8 15.6403ZM11.8 10.6403C11 10.6403 10.3 11.3403 10.3 12.1403C10.3 12.9403 11 13.6403 11.8 13.6403C12.6 13.6403 13.3 12.9403 13.3 12.1403C13.3 11.3403 12.6 10.6403 11.8 10.6403Z" fill="#191919"/>
</svg>
