<svg width="24" height="25" viewBox="0 0 24 25" fill="none" xmlns="http://www.w3.org/2000/svg">
<path d="M8.1 19.6402C7.7 19.6402 7.2 19.5402 6.8 19.3402C6 18.8402 5.5 18.0402 5.5 17.1402V7.24016C5.5 6.34016 6 5.44016 6.8 5.04016C7.6 4.54016 8.6 4.54016 9.4 5.04016L17.9 9.94016C18.7 10.4402 19.2 11.2402 19.2 12.1402C19.2 13.0402 18.7 13.9402 17.9 14.3402L9.4 19.2402C9 19.5402 8.5 19.6402 8.1 19.6402ZM8.1 6.64016C8 6.64016 7.9 6.64016 7.8 6.74016C7.7 6.84016 7.5 6.94016 7.5 7.24016V17.0402C7.5 17.3402 7.7 17.5402 7.8 17.5402C7.9 17.5402 8.1 17.6402 8.4 17.5402L16.9 12.6402C17.2 12.4402 17.2 12.2402 17.2 12.1402C17.2 12.0402 17.2 11.7402 16.9 11.6402L8.4 6.74016C8.3 6.64016 8.2 6.64016 8.1 6.64016Z" fill="#191919"/>
</svg>
