<svg width="20" height="20" viewBox="0 0 20 20" fill="none" xmlns="http://www.w3.org/2000/svg">
<path fill-rule="evenodd" clip-rule="evenodd" d="M14.207 2.89297C15.5853 4.27116 16.4131 6.10506 16.535 8.05035C16.6568 9.99564 16.0645 11.9185 14.869 13.458C14.885 13.471 14.899 13.485 14.914 13.5L19.157 17.743C19.3392 17.9316 19.44 18.1842 19.4377 18.4464C19.4354 18.7086 19.3302 18.9594 19.1448 19.1448C18.9594 19.3302 18.7086 19.4354 18.4464 19.4376C18.1842 19.4399 17.9316 19.3391 17.743 19.157L13.5 14.914C13.4855 14.8994 13.4715 14.8844 13.458 14.869C11.8504 16.116 9.82804 16.7036 7.80247 16.5125C5.7769 16.3213 3.90023 15.3657 2.55426 13.8399C1.20829 12.3142 0.494126 10.333 0.557054 8.29941C0.619982 6.26581 1.45528 4.33256 2.89301 2.89297C3.63588 2.15006 4.51781 1.56075 5.48844 1.15869C6.45908 0.756622 7.4994 0.549683 8.55001 0.549683C9.60062 0.549683 10.6409 0.756622 11.6116 1.15869C12.5822 1.56075 13.4641 2.15006 14.207 2.89297ZM4.30701 12.793C4.86414 13.3502 5.52557 13.7922 6.25352 14.0938C6.98147 14.3953 7.7617 14.5506 8.54965 14.5506C9.3376 14.5507 10.1178 14.3955 10.8458 14.094C11.5738 13.7925 12.2353 13.3506 12.7925 12.7935C13.3497 12.2363 13.7917 11.5749 14.0933 10.847C14.3949 10.119 14.5501 9.33878 14.5502 8.55083C14.5502 7.76288 14.3951 6.98263 14.0936 6.25464C13.7921 5.52665 13.3501 4.86517 12.793 4.30797C11.6647 3.19789 10.1434 2.57863 8.56063 2.58507C6.9778 2.59152 5.46165 3.22315 4.34242 4.34238C3.22318 5.46162 2.59155 6.97777 2.58511 8.56059C2.57866 10.1434 3.19793 11.6647 4.30801 12.793H4.30701Z" fill="#264576"/>
</svg>
