<svg width="24" height="25" viewBox="0 0 24 25" fill="none" xmlns="http://www.w3.org/2000/svg">
<path d="M12.5 5.34016C11.8 4.94016 11 4.94016 10.4 5.34016L6.3 7.74016H3C2.4 7.74016 2 8.14016 2 8.74016V15.5402C2 16.1402 2.4 16.5402 3 16.5402H6.2L10.3 18.9402C10.6 19.1402 11 19.2402 11.4 19.2402C11.8 19.2402 12.1 19.1402 12.5 18.9402C13.2 18.5402 13.6 17.8402 13.6 17.1402V7.14016C13.5 6.44016 13.1 5.74016 12.5 5.34016ZM11.5 17.1402C11.5 17.1402 11.5 17.2402 11.4 17.2402C11.3 17.2402 11.3 17.2402 11.3 17.2402L7 14.6402C6.8 14.5402 6.7 14.5402 6.5 14.5402H4V9.74016H6.5C6.7 9.74016 6.8 9.74016 7 9.64016L11.4 7.14016H11.5V17.1402Z" fill="#191919"/>
<path d="M19.6 6.24019C19.2 5.84019 18.6 5.84019 18.2 6.24019C17.8 6.64019 17.8 7.24019 18.2 7.64019C20.6 10.0402 20.6 14.0402 18.2 16.4402C17.8 16.8402 17.8 17.4402 18.2 17.8402C18.4 18.0402 18.7 18.1402 18.9 18.1402C19.1 18.1402 19.4 18.0402 19.6 17.8402C22.8 14.7402 22.8 9.44019 19.6 6.24019Z" fill="#191919"/>
<path d="M15.1 9.34016C14.7 9.74016 14.7 10.3402 15.1 10.7402C15.8 11.4402 15.8 12.6402 15.1 13.4402C14.7 13.8402 14.7 14.4402 15.1 14.8402C15.3 15.0402 15.6 15.1402 15.8 15.1402C16 15.1402 16.3 15.0402 16.5 14.8402C18 13.3402 18 10.8402 16.5 9.34016C16.1 8.94016 15.5 8.94016 15.1 9.34016Z" fill="#191919"/>
</svg>
